<svg id="Group_115" data-name="Group 115" xmlns="http://www.w3.org/2000/svg" width="14.629" height="14.629" viewBox="0 0 14.629 14.629">
  <g id="Group_5" data-name="Group 5">
    <path id="Path_6" data-name="Path 6" d="M16.759,7.52,15.189,9.383a4.035,4.035,0,0,1,.015.431,5.382,5.382,0,1,1-3-4.835l1.417-1.4A7.156,7.156,0,0,0,9.815,2.5a7.315,7.315,0,1,0,7.315,7.315A7.536,7.536,0,0,0,16.759,7.52Z" transform="translate(-2.5 -2.5)"/>
    <path id="Path_7" data-name="Path 7" d="M32.73,17.667a.678.678,0,0,0-.955-.015l-.832.755a.68.68,0,0,0-.062.955l2.063,2.448.493.585a.7.7,0,0,0,1.063,0l.493-.585,5.143-6.1a.68.68,0,0,0-.062-.955l-.508-.462a.693.693,0,0,0-.955.015l-4.635,4.6Z" transform="translate(-26.37 -12.324)"/>
  </g>
</svg>
