<svg id="Group_115" data-name="Group 115" xmlns="http://www.w3.org/2000/svg" width="15.791" height="15.791" viewBox="0 0 15.791 15.791">
  <g id="Group_5" data-name="Group 5">
    <path id="Path_6" data-name="Path 6" d="M17.892,7.919,16.2,9.93a4.356,4.356,0,0,1,.017.465,5.809,5.809,0,1,1-3.241-5.219L14.5,3.664A7.725,7.725,0,0,0,10.4,2.5a7.9,7.9,0,1,0,7.9,7.9A8.135,8.135,0,0,0,17.892,7.919Z" transform="translate(-2.5 -2.5)" fill="#fff"/>
    <path id="Path_7" data-name="Path 7" d="M32.89,17.95a.732.732,0,0,0-1.031-.017l-.9.814a.734.734,0,0,0-.066,1.031l2.227,2.643.532.632a.759.759,0,0,0,1.147,0l.532-.632,5.552-6.582a.734.734,0,0,0-.066-1.031l-.549-.5a.748.748,0,0,0-1.031.017l-5,4.97Z" transform="translate(-26.025 -12.182)" fill="#fff"/>
  </g>
</svg>
