<svg id="Group_3458" data-name="Group 3458" xmlns="http://www.w3.org/2000/svg" width="28.921" height="28.922" viewBox="0 0 28.921 28.922">
  <path id="Path_688" data-name="Path 688" d="M14.461,0A14.461,14.461,0,1,0,28.922,14.461,14.461,14.461,0,0,0,14.461,0Zm0,5.079,8.557,5.336H5.9Zm8.664,13.857h0a1.549,1.549,0,0,1-1.549,1.549H7.348A1.549,1.549,0,0,1,5.8,18.936V10.755a1.541,1.541,0,0,1,.024-.265L14,15.588c.01.006.021.011.031.016l.033.017a.858.858,0,0,0,.178.07l.019,0a.882.882,0,0,0,.2.026h0a.866.866,0,0,0,.2-.026l.019,0a.867.867,0,0,0,.178-.07l.033-.017c.01-.006.021-.01.031-.016l8.176-5.1a1.539,1.539,0,0,1,.024.265v8.181Z" transform="translate(-0.001)" fill="#fff"/>
</svg>
