<svg id="Group_52" data-name="Group 52" xmlns="http://www.w3.org/2000/svg" width="26.787" height="26.787" viewBox="0 0 26.787 26.787">
  <path id="Path_8" data-name="Path 8" d="M12.611,8.827a.955.955,0,0,1-.737-.346,4.018,4.018,0,0,0-3.09-1.567,4.018,4.018,0,0,0-3.09,1.567A.957.957,0,1,1,4.22,7.26,5.9,5.9,0,0,1,8.783,5a5.9,5.9,0,0,1,4.563,2.26.957.957,0,0,1-.736,1.567Z" transform="translate(-2.086 -2.13)" fill="#fff"/>
  <path id="Path_9" data-name="Path 9" d="M10.784,10.87a.954.954,0,0,1-.737-.347,1.468,1.468,0,0,0-2.353,0A.956.956,0,1,1,6.22,9.3a3.346,3.346,0,0,1,5.3,0,.957.957,0,0,1-.736,1.567Z" transform="translate(-2.173 -2.26)" fill="#fff"/>
  <path id="Path_10" data-name="Path 10" d="M14.437,6.783a.954.954,0,0,1-.737-.347,6.5,6.5,0,0,0-5-2.523,6.5,6.5,0,0,0-5,2.523A.956.956,0,0,1,2.22,5.217,8.374,8.374,0,0,1,8.7,2a8.374,8.374,0,0,1,6.477,3.217.957.957,0,0,1-.736,1.567Z" transform="translate(-2 -2)" fill="#fff"/>
  <path id="Path_11" data-name="Path 11" d="M4.87,15h7.654v2.87A3.831,3.831,0,0,0,16.35,21.7v.957a2.87,2.87,0,0,1-2.87,2.87H11.567s.957,3.248.957,3.348a.478.478,0,0,1-.478.478h-.019a.476.476,0,0,1-.287-.1l-4-3.731H4.87A2.87,2.87,0,0,1,2,22.654V17.87A2.87,2.87,0,0,1,4.87,15Z" transform="translate(-2 -2.563)" fill="#fff"/>
  <path id="Path_12" data-name="Path 12" d="M16.87,10h9.567a2.87,2.87,0,0,1,2.87,2.87v4.783a2.87,2.87,0,0,1-2.87,2.87h-2.87l-4,3.731a.476.476,0,0,1-.287.1h-.019a.478.478,0,0,1-.478-.478c0-.1.957-3.348.957-3.348H16.87A2.87,2.87,0,0,1,14,17.654V12.87A2.87,2.87,0,0,1,16.87,10Z" transform="translate(-2.52 -2.346)" fill="#fff"/>
  <ellipse id="Ellipse_1" data-name="Ellipse 1" cx="1.049" cy="0.786" rx="1.049" ry="0.786" transform="translate(5.731 8.789)" fill="#fff"/>
</svg>
