<svg id="Group_52" data-name="Group 52" xmlns="http://www.w3.org/2000/svg" width="24.816" height="24.816" viewBox="0 0 24.816 24.816">
  <path id="Path_8" data-name="Path 8" d="M11.977,8.545a.885.885,0,0,1-.683-.321A3.722,3.722,0,0,0,8.431,6.773,3.722,3.722,0,0,0,5.569,8.224.886.886,0,1,1,4.2,7.093,5.463,5.463,0,0,1,8.431,5a5.463,5.463,0,0,1,4.228,2.093.886.886,0,0,1-.682,1.452Z" transform="translate(-2.227 -2.341)" fill="#a70a0e"/>
  <path id="Path_9" data-name="Path 9" d="M10.432,10.659a.884.884,0,0,1-.683-.321,1.36,1.36,0,0,0-2.18,0A.886.886,0,1,1,6.2,9.207a3.1,3.1,0,0,1,4.91,0,.886.886,0,0,1-.682,1.451Z" transform="translate(-2.455 -2.682)" fill="#a70a0e"/>
  <path id="Path_10" data-name="Path 10" d="M13.522,6.431a.884.884,0,0,1-.683-.321A6.021,6.021,0,0,0,8.2,3.773,6.02,6.02,0,0,0,3.569,6.11.886.886,0,0,1,2.2,4.98,7.758,7.758,0,0,1,8.2,2a7.758,7.758,0,0,1,6,2.98.886.886,0,0,1-.682,1.451Z" transform="translate(-2 -2)" fill="#a70a0e"/>
  <path id="Path_11" data-name="Path 11" d="M4.659,15h7.09v2.659A3.549,3.549,0,0,0,15.294,21.2v.886a2.659,2.659,0,0,1-2.659,2.659H10.863s.886,3.009.886,3.1a.443.443,0,0,1-.443.443h-.018a.441.441,0,0,1-.266-.089l-3.7-3.456H4.659A2.659,2.659,0,0,1,2,22.09V17.659A2.659,2.659,0,0,1,4.659,15Z" transform="translate(-2 -3.478)" fill="#a70a0e"/>
  <path id="Path_12" data-name="Path 12" d="M16.659,10h8.863a2.659,2.659,0,0,1,2.659,2.659V17.09a2.659,2.659,0,0,1-2.659,2.659H22.863l-3.7,3.456a.441.441,0,0,1-.266.089h-.018a.443.443,0,0,1-.443-.443c0-.093.886-3.1.886-3.1H16.659A2.659,2.659,0,0,1,14,17.09V12.659A2.659,2.659,0,0,1,16.659,10Z" transform="translate(-3.364 -2.91)" fill="#a70a0e"/>
  <ellipse id="Ellipse_1" data-name="Ellipse 1" cx="0.971" cy="0.729" rx="0.971" ry="0.729" transform="translate(5.31 8.142)" fill="#a70a0e"/>
</svg>
