<svg id="noun-setting-7030000" xmlns="http://www.w3.org/2000/svg" xmlns:xlink="http://www.w3.org/1999/xlink" width="46.334" height="46.336" viewBox="0 0 46.334 46.336">
  <defs>
    <linearGradient id="linear-gradient" x1="0.5" x2="0.5" y2="1" gradientUnits="objectBoundingBox">
      <stop offset="0" stop-color="#57a7f3"/>
      <stop offset="1" stop-color="#003262"/>
    </linearGradient>
  </defs>
  <path id="Path_704" data-name="Path 704" d="M36.262,27.6a8.652,8.652,0,1,1-8.654,8.654A8.652,8.652,0,0,1,36.262,27.6ZM40.075,13.09H32.444a1.218,1.218,0,0,0-1.172.893L29.94,18.75q-.813.294-1.594.662l-4.309-2.433a1.2,1.2,0,0,0-.6-.159,1.214,1.214,0,0,0-.863.358l-5.395,5.395h0a1.218,1.218,0,0,0-.2,1.461l2.43,4.313c-.243.517-.466,1.05-.662,1.594l-4.765,1.327a1.221,1.221,0,0,0-.893,1.175v7.629a1.218,1.218,0,0,0,.893,1.175l4.767,1.329c.2.544.417,1.079.662,1.6L16.983,48.48a1.218,1.218,0,0,0,.2,1.461l5.395,5.395v0s0,0,0,0a1.219,1.219,0,0,0,1.459.2l4.311-2.43q.78.368,1.6.662l1.322,4.765a1.221,1.221,0,0,0,1.175.893v0l7.629,0a1.221,1.221,0,0,0,1.175-.893l1.324-4.762c.544-.2,1.079-.419,1.6-.665l4.311,2.43a1.223,1.223,0,0,0,1.461-.2v0l0,0,5.392-5.395a1.218,1.218,0,0,0,.2-1.461l-2.433-4.3q.368-.783.665-1.6l4.765-1.327a1.218,1.218,0,0,0,.893-1.175V32.443a1.221,1.221,0,0,0-.893-1.175l-4.765-1.324c-.2-.547-.422-1.076-.665-1.594l2.433-4.316a1.218,1.218,0,0,0-.2-1.461v0l-5.392-5.392a1.224,1.224,0,0,0-.866-.358,1.2,1.2,0,0,0-.6.159l-4.309,2.433q-.78-.368-1.594-.662L41.25,13.983a1.221,1.221,0,0,0-1.175-.893Z" transform="translate(-13.094 -13.09)" fill="url(#linear-gradient)"/>
</svg>
