<svg xmlns="http://www.w3.org/2000/svg" xmlns:xlink="http://www.w3.org/1999/xlink" version="1.1" id="Layer_1" x="0px" y="0px" viewBox="0 0 171.36 171.12" enable-background="new 0 0 171.36 171.12" xml:space="preserve">
<path d="M63.09,164.94c-1.34,0-1.49-1.45-1.49-2.08c-0.01-8.56-0.01-17.11-0.01-25.67l0-12.85c0-7.3-3.52-11.28-10.75-12.17  c-5.33-0.65-10.67-1.26-16.01-1.87L31.96,110c-1.9-0.22-2.21-0.55-2.22-2.36c-0.01-1.1,0-2.19,0.01-3.29  c0.01-2.07,0.02-4.21-0.05-6.33c-0.05-1.34-0.43-2.73-1.06-3.79c-1.55-2.67-3.19-5.34-4.77-7.92c-0.84-1.37-1.68-2.74-2.51-4.12  c-0.66-1.08-0.58-1.89,0.22-2.4c0.26-0.16,0.52-0.25,0.76-0.25c0.52,0,1.04,0.38,1.47,1.06c1.65,2.68,3.29,5.36,4.93,8.05l2.4,3.93  c2.14,3.5,4.54,5.13,7.55,5.13c1.33,0,2.78-0.32,4.44-0.97c9.12-3.59,19.01-7.54,30.22-12.09c2.13-0.86,3.78-2.45,4.64-4.47  c0.86-2.01,0.87-4.25,0.03-6.33c-1.28-3.15-4.18-5.11-7.58-5.11c-1.11,0-2.21,0.21-3.28,0.63c-5.51,2.16-11,4.36-16.49,6.56  l-5.75,2.3c-1,0.4-1.76,0.66-2.21,0.66c-0.4,0-0.75-0.28-1.83-2.04l-3.99-6.54c-2.88-4.73-5.77-9.45-8.68-14.16  c-1.66-2.7-4.45-4.31-7.46-4.31c-1.77,0-3.48,0.56-4.93,1.63c-2.05,1.5-3.2,3.72-3.41,6.58l-0.89,11.89  c-0.69,9.26-1.39,18.52-2.08,27.77l-0.27,3.65c-0.37,4.91-0.75,9.99-1.19,14.97c-0.51,5.79,3.45,10.97,9.01,11.8  c4.46,0.66,9.01,1.25,13.4,1.81c2.5,0.32,5,0.64,7.5,0.98c1.63,0.22,1.92,0.54,1.92,2.14c0.01,9.27,0.01,18.53,0,27.8  c0,1.22-0.57,2.07-1.38,2.07c-0.13,0-0.28-0.02-0.42-0.06c-0.7-0.2-1.13-0.58-1.13-1.86c0.01-5.92,0.01-11.85,0.01-17.77l0-9.51  l-5.46-0.71c-3.48-0.45-6.91-0.9-10.34-1.35c-0.51-0.07-1.03-0.13-1.54-0.18c-1.35-0.15-2.62-0.29-3.85-0.61  c-5.45-1.39-8.84-4.77-10.36-10.34c-0.08-0.29-0.18-0.58-0.28-0.87l-0.07-0.19v-4.29c0.09-0.9,0.19-1.91,0.29-2.92  c0.22-2.18,0.44-4.44,0.61-6.67c0.57-7.51,1.14-15.02,1.7-22.53c0.63-8.47,1.27-16.95,1.92-25.42c0.4-5.18,3.74-9.26,8.52-10.41  c0.94-0.23,1.9-0.34,2.84-0.34c4.02,0,7.61,2.06,9.84,5.66c2.6,4.2,5.17,8.42,7.75,12.64c1.17,1.92,2.33,3.83,3.5,5.74  c0.23,0.38,0.47,0.76,0.73,1.17l0.92,1.47l12.92-5.15l3.1-1.24c2.07-0.83,4.14-1.66,6.22-2.47c1.51-0.59,3.06-0.89,4.61-0.89  c4.61,0,8.55,2.65,10.28,6.91c2.4,5.88-0.38,12.2-6.46,14.69c-8.35,3.42-17.48,7.06-28.73,11.47c-1.74,0.68-4.01,1.49-6.25,1.76  c-0.22,0.03-0.44,0.04-0.67,0.04c-0.87,0-1.81-0.17-2.8-0.35c-0.61-0.11-1.23-0.22-1.86-0.3l-1.25-0.16v1.26  c0,0.34-0.01,0.68-0.01,1.04c-0.02,1.04-0.04,2.11,0.08,3.21c0.11,1.03,1.39,1.85,2.23,1.95c5.17,0.65,10.44,1.24,15.53,1.82  l1.45,0.16c7.29,0.83,12.43,6.41,12.5,13.59c0.09,10.06,0.07,20.3,0.05,30.2c-0.01,3.3-0.01,6.6-0.02,9.9  C64.52,163.6,64.38,164.94,63.09,164.94z" fill="#00ce7d"></path>
<path d="M133.05,164.96c-0.58,0-1.28-0.49-1.42-1.3c-0.06-0.34-0.05-0.73-0.04-1.15l0.01-0.39c0.12-8.95,0.24-17.9,0.36-26.84  c0.03-2.3,0.17-2.45,2.38-2.72l0.78-0.09c5.66-0.69,11.52-1.4,17.28-1.98c7.39-0.74,11.41-5.41,11.03-12.83  c-0.49-9.42-0.92-19.01-1.34-28.28l-0.48-10.5c-0.12-2.67-0.24-5.35-0.36-8.03c-0.1-2.38-0.21-4.76-0.32-7.14  c-0.21-4.74-3.16-8.59-7.49-9.8c-0.96-0.27-1.94-0.41-2.91-0.41c-3.61,0-6.83,1.85-8.82,5.06c-4.77,7.69-9.33,15.2-13.16,21.54  c-0.74,1.23-1.8,1.9-3.32,2.12c-3.31,0.47-6.62,0.94-9.93,1.41c-4.86,0.69-9.71,1.38-14.57,2.08c-4.74,0.69-7.71,4.47-7.22,9.21  c0.42,4.09,3.87,7.17,8.02,7.17c0.33,0,0.66-0.02,1-0.06c4.77-0.55,9.6-1.25,14.28-1.92c1.84-0.27,3.68-0.53,5.52-0.79  c1.24-0.17,2.48-0.36,3.72-0.54c2.17-0.32,4.35-0.64,6.52-0.91c3.34-0.42,5.79-2.02,7.49-4.89c2.24-3.78,4.66-7.74,7.4-12.1  c0.47-0.74,0.9-1.07,1.02-1.11c0.05,0,0.11-0.01,0.18-0.01c0.55,0,1.25,0.24,1.62,0.56c0.53,0.44,0.18,1.22-0.08,1.65  c-0.48,0.81-0.96,1.62-1.43,2.43c-1.16,1.99-2.35,4.05-3.71,5.91c-2.8,3.85-3.93,7.85-3.43,12.24c0.14,1.26,0.1,2.55,0.06,3.91  c-0.02,0.46-0.03,0.92-0.04,1.38c-0.03,1.58-0.37,1.96-1.94,2.15l-2.38,0.28c-5.81,0.68-11.62,1.36-17.44,1.99  c-6.01,0.66-10.06,5.09-10.07,11.04c-0.02,9.03-0.02,18.07-0.02,27.1l0,11.58l0,0.43c0,0.35,0.01,0.7-0.02,1.05  c-0.09,0.88-0.71,1.51-1.47,1.51c-0.85-0.01-1.39-0.61-1.42-1.51c-0.05-1.8-0.04-3.63-0.03-5.4l0-1.92c0-3.13,0.03-6.26,0.05-9.39  c0.06-7.04,0.12-14.33-0.14-21.49c-0.34-9.25,5.42-15.6,14.68-16.19c3.19-0.2,6.4-0.6,9.5-0.99c1.77-0.22,3.54-0.44,5.31-0.63  c1.76-0.18,2.58-1.11,2.45-2.74c-0.06-0.79-0.05-1.62-0.03-2.43c0.01-0.37,0.01-0.74,0.01-1.11v-1.3c0,0-3.34,0.53-4.35,0.7  c-2.24,0.37-4.35,0.71-6.51,1.01c-7.51,1.05-16.41,2.28-25.45,3.46c-0.4,0.05-0.8,0.08-1.19,0.08c-1.62,0-3.15-0.43-4.55-1.27  c-1.29-0.77-2.63-1.13-4.24-1.13c-0.15,0-0.31,0-0.46,0.01c-0.61,0.02-1.22,0.03-1.84,0.03c-0.48,0-2.57-0.02-3.16-0.02h-1.11v10.89  c0,16.19,0,32.37-0.01,48.56c0,0.69,0,1.27-0.14,1.74c-0.2,0.69-0.62,1.03-1.26,1.03c-0.07,0-0.14,0-0.22-0.01  c-0.81-0.09-1.2-0.48-1.28-1.28c-0.04-0.45-0.04-0.91-0.04-1.37l0-59.56c0,0-13.36,0-13.37,0c-3.09,0-6.19,0-9.28-0.01  c-1.1,0-1.76-0.54-1.77-1.43c-0.01-1.04,0.95-1.44,1.78-1.48c0.16-0.01,0.32-0.01,0.48-0.01l0.75,0h29.76l-0.13-1.24  c-0.07-0.61-0.16-1.21-0.25-1.81c-0.18-1.21-0.35-2.35-0.3-3.44c0.28-5.98,4.44-9.92,11.4-10.8c4.3-0.54,8.65-1.17,12.86-1.77  c2.99-0.43,5.98-0.86,8.97-1.26c1.32-0.18,2.19-0.76,2.9-1.93l1.5-2.49c3.62-5.99,7.36-12.18,11.15-18.2  c2.48-3.95,6.72-6.3,11.32-6.3c4.67,0,8.87,2.41,11.23,6.45c1.08,1.86,1.77,4.03,1.88,5.95c0.59,10.58,1.07,21.34,1.53,31.75  c0.16,3.72,0.33,7.45,0.5,11.17c0.07,1.57,0.15,3.15,0.23,4.72c0.13,2.52,0.26,5.04,0.35,7.56c0.32,8.38-4.92,14.36-13.35,15.22  c-3.91,0.4-7.73,0.86-11.78,1.34c-1.79,0.21-3.58,0.43-5.4,0.64l-0.99,0.11l0,1.65c0,0.44,0,0.85,0,1.27l-0.07,5.32  c-0.08,6.27-0.16,12.75-0.31,19.12c-0.02,0.68-0.33,1.51-0.7,1.85C133.56,164.86,133.32,164.96,133.05,164.96z" fill="#00ce7d"></path>
<path d="M62.89,48.54c-0.38,0-0.79-0.09-1.2-0.28c-1.22-0.55-1.74-1.48-1.74-3.1c0-4.41,0-8.81,0-13.21v-0.46  c0-6.16,0-12.3,0.01-18.44c0.01-3.92,2.7-6.56,6.7-6.58c2.34-0.01,4.68-0.01,7.02-0.01l27.96,0.01c4.43,0.01,6.98,2.52,7,6.9  c0.03,6.19,0.03,12.8,0,19.64c-0.02,4.4-2.56,6.92-6.98,6.93l-0.79,0c-3.8,0.01-7.6,0.01-11.4,0.01c-4.35,0-8.7-0.01-13.04-0.03  c-1.89,0-3.38,0.57-4.71,1.79c-1.41,1.29-2.86,2.55-4.27,3.77l-0.29,0.25c-0.71,0.62-1.43,1.23-2.13,1.85  C64.3,48.23,63.6,48.54,62.89,48.54z M67.31,8.78c-3.57,0-5.03,1.47-5.03,5.06l0,33.06l2.35-2.05c0.68-0.59,1.33-1.14,1.95-1.67  c1.33-1.13,2.55-2.18,3.74-3.3c1.65-1.56,3.55-2.29,5.99-2.29l0.12,0c3.71,0.04,7.43,0.05,11.14,0.05c2.37,0,13.8-0.02,13.8-0.02  c3.53,0,4.97-1.43,4.98-4.91c0.01-6.34,0.01-12.68,0-19.02c0-3.48-1.45-4.9-4.99-4.9l-16.24,0L67.31,8.78z" fill="#00ce7d"></path>
<path d="M62.89,48.29c-0.35,0-0.72-0.09-1.1-0.26c-1.13-0.51-1.59-1.34-1.59-2.87c0-4.4,0-8.81,0-13.21c0-6.31,0-12.61,0.01-18.9  c0.01-3.77,2.6-6.32,6.45-6.33c2.34-0.01,4.68-0.01,7.02-0.01l27.96,0.01c4.27,0.01,6.73,2.43,6.75,6.65  c0.03,6.23,0.03,12.84,0,19.64c-0.02,4.24-2.47,6.67-6.73,6.68l-0.79,0c-3.8,0.01-7.6,0.01-11.4,0.01c-4.35,0-8.69-0.01-13.04-0.03  c-1.95,0-3.5,0.59-4.88,1.86c-1.4,1.29-2.86,2.55-4.27,3.76l-0.21,0.18c-0.74,0.64-1.48,1.28-2.22,1.93  C64.18,48,63.53,48.29,62.89,48.29z M67.31,8.53c-3.7,0-5.28,1.59-5.28,5.31l0,33.61l2.77-2.41c0.68-0.59,1.32-1.14,1.94-1.67  c1.31-1.12,2.55-2.18,3.75-3.31c1.6-1.51,3.45-2.22,5.82-2.22l0.12,0c3.71,0.03,7.43,0.05,11.15,0.05c2.37,0,13.8-0.02,13.8-0.02  c3.66,0,5.22-1.55,5.23-5.16c0.01-6.34,0.01-12.68,0-19.02c0-3.61-1.57-5.15-5.24-5.15l-16.24,0L67.31,8.53z" fill="#00ce7d"></path>
<path d="M145.02,40.37c-9.39,0-17.08-7.65-17.13-17.05c-0.05-9.41,7.58-17.1,17.02-17.16c9.44,0,17.09,7.63,17.17,17.01  c0.04,4.55-1.71,8.84-4.91,12.1c-3.21,3.26-7.48,5.07-12.03,5.1H145.02z M144.96,9.1c-7.75,0.02-14.08,6.36-14.1,14.13  c-0.03,7.79,6.25,14.16,13.99,14.22c0,0,0,0,0,0c7.88,0,14.24-6.33,14.27-14.1c0.01-3.81-1.46-7.39-4.15-10.09  c-2.67-2.68-6.21-4.16-9.98-4.16h0H144.96z" fill="#00ce7d"></path>
<path d="M26.36,40.37c-9.4-0.02-17.04-7.69-17.04-17.09c0-9.42,7.65-17.09,17.06-17.11c9.42,0,17.09,7.65,17.14,17.06  c0.02,4.56-1.74,8.86-4.97,12.1c-3.24,3.25-7.55,5.05-12.15,5.05H26.36z M26.38,9.1c-3.76,0-7.29,1.48-9.96,4.16  c-2.69,2.7-4.16,6.28-4.15,10.09c0.03,7.78,6.39,14.1,14.17,14.1c7.84-0.05,14.12-6.43,14.09-14.22c-0.03-7.77-6.35-14.1-14.1-14.13  H26.38z" fill="#00ce7d"></path>
<path d="M77.79,19.63c-1.45,0-2.89,0-4.34-0.01c-1.61-0.01-1.75-0.58-1.75-1.12c0-0.36,0.08-0.62,0.25-0.78  c0.25-0.26,0.77-0.4,1.44-0.4c3.7-0.01,7.4-0.01,11.1-0.01c3.7,0,7.4,0,11.1,0.01c1.76,0,1.77,0.87,1.78,1.16  c0,0.33-0.07,0.57-0.24,0.73c-0.26,0.26-0.8,0.42-1.49,0.42c-1.49,0.01-2.98,0.01-4.47,0.01H77.79z" fill="#00ce7d"></path>
<path d="M77.79,19.38c-1.45,0-2.89,0-4.34-0.01c-1.5-0.01-1.5-0.49-1.51-0.88c0-0.42,0.13-0.56,0.17-0.6  c0.21-0.21,0.67-0.33,1.27-0.33c3.7-0.01,7.4-0.01,11.1-0.01c3.7,0,7.4,0,11.1,0.01c1.52,0,1.52,0.64,1.53,0.91  c0,0.34-0.09,0.48-0.16,0.55c-0.21,0.21-0.7,0.34-1.31,0.35c-1.49,0.01-2.98,0.01-4.47,0.01H77.79z" fill="#00ce7d"></path>
<path d="M78.55,29.11c-1.83,0-3.66-0.01-5.49-0.04c-0.49-0.01-0.87-0.13-1.09-0.37c-0.19-0.19-0.28-0.47-0.27-0.83  c0.01-0.34,0.02-1.06,1.35-1.1c0.71-0.02,1.42-0.03,2.13-0.03l3.42,0.02h1.44l0.23-0.01l1.65-0.01c0.69,0,1.38,0.01,2.08,0.03  c1.31,0.03,1.5,0.73,1.51,1.14c0,0.68-0.59,1.17-1.45,1.18C82.21,29.1,80.38,29.11,78.55,29.11z" fill="#00ce7d"></path>
<path d="M78.55,28.87c-1.83,0-3.66-0.01-5.49-0.04c-0.42-0.01-0.74-0.11-0.92-0.29c-0.14-0.14-0.21-0.36-0.2-0.66  c0.01-0.33,0.01-0.82,1.11-0.86c0.7-0.02,1.41-0.03,2.12-0.03l3.42,0.02h1.67v-0.01l1.65-0.01c0.69,0,1.38,0.01,2.07,0.03  c0.84,0.02,1.26,0.32,1.27,0.89c0,0.63-0.6,0.92-1.2,0.93C82.21,28.85,80.38,28.87,78.55,28.87z" fill="#00ce7d"></path>
</svg>