<svg xmlns="http://www.w3.org/2000/svg" xmlns:xlink="http://www.w3.org/1999/xlink" version="1.1" id="Layer_1" x="0px" y="0px" viewBox="0 0 171.36 171.12" enable-background="new 0 0 171.36 171.12" xml:space="preserve">
<g>
	<path d="M40.99,167.49c-7.23,0-14.45-0.01-21.67-0.01c-0.67,0-1.16-0.18-1.35-0.49c-0.2-0.33-0.13-0.91,0.19-1.55l1.17-2.32   c1.86-3.68,3.76-7.44,5.74-11.06c4.1-7.49,5.25-15.4,3.54-24.17c-0.14-0.72-0.29-1.44-0.44-2.16c-0.74-3.51-1.51-7.14-0.74-10.64   c0.72-3.26,1.6-5.91,2.68-8.1c2.28-4.59,4.72-9.2,7.08-13.66c1.42-2.68,2.84-5.37,4.24-8.07c0.52-1.01,0.82-2.24,0.83-3.37   c0.04-6.64,0.03-13.27,0.03-19.91v-7.74c0-0.2-0.01-0.42-0.03-0.64c-0.01-0.12-0.03-0.44-0.02-0.59c0.7-0.98,1.1-1.14,1.11-1.14   c0.03,0.02,0.55,0.27,1.14,0.92c0.03,0.19,0.02,0.64,0.01,0.8c0,0.16-0.01,0.3-0.01,0.44c0.01,4.53,0.01,9.06,0.01,13.59   l-0.04,10.43c0,0,4.84-5.64,5.57-6.37c0.56-0.55,0.83-1.44,0.83-2.69c0.02-12.9,0.02-25.81,0.02-38.72v-8.61   c0-2.39,0.05-2.43,2.48-2.43l89.13,0c2.28,0,2.32,0.04,2.32,2.25l0,68.79l0,0.36c0.01,0.28,0.01,0.54-0.02,0.74   c-0.12,0.81-0.45,0.98-1.01,1.01l-0.14,0c-0.39,0-0.81-0.08-1.01-0.97c-0.06-0.26-0.05-0.61-0.04-0.99c0-0.17,0.01-0.34,0.01-0.51   l0-68.38H53.24l-0.09,1.76c-0.02,0.38-0.05,0.76-0.05,1.14l0,12.2c0,10.73,0,21.46-0.02,32.2c0,1.5,0.52,2.46,1.82,3.28   c4.2,2.67,4.7,6.81,4.39,9.82c-0.36,3.44-1.1,6.93-1.82,10.31c-0.21,0.99-0.42,1.98-0.62,2.97c-0.37,1.82-0.8,3.66-1.21,5.44   c-0.35,1.51-0.7,3.01-1.02,4.53c-0.09,0.4-0.32,1.8,0.34,2.82c3.43,5.28,5.8,11.07,7.05,17.21l0.22,1.07h80.39l0-24.08l0-0.36   c-0.01-0.32-0.01-0.61,0.03-0.83c0.17-0.86,0.63-0.97,1.05-0.97c0.69,0,1,0.29,1.11,1.02c0.03,0.19,0.02,0.38,0.02,0.58   l-0.01,24.92c0,1.91-0.12,2.02-2.04,2.03l-80.31,0l0.05,1.38c0.18,5.5-0.86,10.58-3.18,15.53l-0.9,1.9l82.13,0   c6.9,0,10.7-3.83,10.7-10.77c0-40.01,0-80.01,0-120.02c0-6.94-3.8-10.76-10.71-10.76l-85.88,0c-5.04,0-8.61,2.5-9.81,6.85   c-0.33,1.22-0.36,2.48-0.37,3.56c-0.02,6.24-0.02,12.47-0.02,18.71l0,6.88c0,0.31,0.01,0.58-0.01,0.84   c-0.03,0.44-0.19,1.45-1.12,1.46c-0.99,0-1.07-1.04-1.07-1.36l-0.02-6.02c-0.02-7.21-0.05-14.64,0.06-21.93   c0.08-5.14,3.46-9.39,8.62-10.83c0.32-0.09,0.63-0.2,0.94-0.32l0.13-0.05h91.6l0.16,0.06c0.3,0.11,0.61,0.22,0.93,0.3   c4.75,1.27,8.06,5.08,8.63,9.94c0.09,0.78,0.14,1.6,0.14,2.43c0.01,40.17,0.01,80.34,0,120.51c0,6.19-3.18,10.76-8.51,12.22   c-1.15,0.31-2.49,0.48-3.98,0.48c-5.97,0.02-11.94,0.03-17.92,0.03c-6.22,0-12.45-0.01-18.67-0.03c-1.45,0-2.53,0.41-3.63,1.38   c-4.15,3.69-9.46,6.37-16.72,8.42c-1.35,0.38-2.87,1.02-3.94,2.86c-0.72,1.24-1.7,2.83-2.9,4.19c-0.52,0.59-1.29,1-1.65,1.01   C65.26,167.47,54.26,167.49,40.99,167.49z M68.03,165.28c0.6,0,1.24,0.05,1.87,0.1c0.72,0.05,1.41,0.11,2.09,0.11   c1.33,0,2.35-0.2,3.2-0.64c1.62-0.83,2.56-2.52,3.48-4.16c0.28-0.5,0.55-0.99,0.84-1.44c0.53-0.82,1.17-1.25,2.29-1.53   c4.99-1.24,9.42-3.02,13.57-5.45l2.9-1.7L95,149.8l-0.37-0.09c-0.21-0.06-0.42-0.11-0.69-0.11l-14.63-0.01   c-6.89,0-13.77,0.01-20.66,0.03c-1.03,0-2.02,0.66-2.55,1.22c-0.54,0.57-1.03,1.18-1.5,1.77c-0.43,0.53-0.86,1.08-1.33,1.58   c-0.23,0.24-0.53,0.38-0.84,0.38c-0.25,0-0.5-0.09-0.69-0.25c-0.46-0.39-0.49-0.99-0.08-1.56c0.21-0.29,0.45-0.56,0.69-0.83   c0.2-0.22,0.36-0.4,0.51-0.58c5.3-6.31,7.81-13.4,7.46-21.09c-0.34-7.48-2.86-14.57-7.69-21.68c-0.6-0.89-0.75-1.59-0.52-2.59   c1.66-7.28,3.25-14.65,4.74-21.58c0.5-2.31,0.84-5.32-0.94-8.09c-0.61-0.96-1.85-2.21-3.29-2.57c-0.24-0.06-0.48-0.09-0.72-0.09   c-1.82,0-2.67,1.63-3.24,2.72c-1.75,3.35-3.52,6.7-5.28,10.04l-0.06,0.11c-3.73,7.08-7.58,14.41-11.31,21.65   c-0.91,1.78-2.15,4.45-2.27,7.11c-0.15,3.17,0.12,6.63,0.82,10.58c0.94,5.34,1.7,11.67,0.11,18.14c-0.99,4.03-2.93,7.77-4.82,11.39   c0,0-0.71,1.37-1.02,1.98c-0.66,1.29-1.33,2.58-2.03,3.94l-2.05,3.96l24.45,0C52.8,165.29,60.41,165.28,68.03,165.28L68.03,165.28z   " fill="#00ce7d"></path>
	<path d="M70,83.28c-3.44,0-5.12-1.65-5.12-5.05c-0.01-11.92-0.01-23.84,0-35.76c0-3.41,1.56-5.06,4.75-5.06   c0,0,0.68,0.01,0.87,0.01c2.82,0,5.4-0.61,8.09-1.92c3.13-1.52,6.16-2.28,9.01-2.28c3.08,0,6.08,0.9,8.91,2.67   c0.49,0.31,1.06,0.35,1.36,0.35c0.35,0,0.86-0.06,1.32-0.34c2.89-1.79,5.81-2.65,8.93-2.65c3.22,0,6.59,0.93,10.3,2.84   c1.76,0.9,3.35,1.32,5,1.32c0.21,0,0.42-0.01,0.64-0.02c0.43-0.03,0.87-0.04,1.31-0.04c0.64,0,1.27,0.03,1.86,0.1   c2.07,0.24,3.58,2.07,3.59,4.35c0.02,4.91,0.02,9.81,0.01,14.71v10.91c0,3.7,0,7.41-0.01,11.11c-0.01,3.06-1.69,4.75-4.74,4.75   c-4.13,0.01-8.25,0.01-12.37,0.01l0,0L70,83.28z M70.73,39.58c-3.03,0-3.64,0.62-3.64,3.71l0,8.45c0,8.47,0.01,17.24-0.03,25.99   c0,0.81,0.08,1.83,0.81,2.56c0.72,0.73,1.71,0.82,2.48,0.82c3.84-0.03,7.6-0.04,11.36-0.04l14.89,0.01l0.07-1.26   c0.29-5.22-0.76-6.69-5.63-7.85c-0.13-0.03-0.26-0.05-0.38-0.07l-0.16-0.03c-0.98-0.19-1.98-0.29-2.98-0.29   c-3.22,0-6.51,1-10.33,3.13l-0.44,0.25c-0.55,0.32-1.07,0.63-1.47,0.63c-0.16,0-0.34-0.05-0.53-0.16c-0.52-0.3-0.57-0.64-0.53-1.86   c0.01-0.2,0.01-0.4,0.01-0.6c0-7.62,0-15.23,0-22.85l0-10.55H70.73z M108.1,71.55c-2.61,0-5.08,0.71-7.35,2.12   c-0.69,0.43-1.56,1.3-1.72,2.34c-0.14,0.9-0.11,1.78-0.09,2.63c0.01,0.36,0.02,0.68,0.02,1v1.19l1.19,0.13l0.36,0.05   c0.28,0.04,0.5,0.06,0.73,0.06h10.85c4.56,0,9.12,0,13.69,0.03c0.94,0,1.64-0.24,2.13-0.73c0.66-0.66,0.74-1.57,0.74-2.29   c-0.02-5.39-0.02-10.77-0.02-16.16l0-8.61c0.01-3.36,0.01-7.18-0.04-10.83c-0.02-0.98-0.8-2.54-2-2.78   c-0.49-0.1-1.03-0.14-1.68-0.14c-0.33,0-0.67,0.01-1.01,0.02c-0.37,0.01-0.69,0.02-1.01,0.02h-1.34l0,4.46c0,2.39,0.01,4.69-0.01,7   c-0.02,1.64-0.69,1.64-1.09,1.64c-0.41,0-1.09-0.01-1.11-1.69c-0.02-1.7-0.02-3.41-0.01-5.12l0-2.34c0-4.67-0.36-5.18-4.82-6.81   c-2.27-0.83-4.36-1.23-6.39-1.23c-2.49,0-4.88,0.63-7.11,1.88c-1.43,0.8-2.08,1.95-2.07,3.62c0.04,6.71,0.04,13.42,0.03,20.13   l0,10.75l1.9-0.87c2.38-1.09,4.75-1.62,7.24-1.62c2.87,0,5.93,0.72,9.36,2.21l1.87,0.81l-0.01-4.81c0-1.94-0.01-3.81,0.01-5.68   c0.01-0.72,0.2-1.58,1.08-1.61c0.91,0,1.12,0.89,1.12,1.63c0.03,3.63,0.05,7.91,0,12.16c-0.01,0.67-0.18,1.47-0.98,1.47   c-0.33,0-0.75-0.13-1.18-0.35l-0.53-0.28c-1.41-0.76-2.87-1.55-4.43-2.13C112.21,71.97,110.09,71.55,108.1,71.55z M87.6,35.5   c-2.77,0-5.66,0.76-9.08,2.39c-1.46,0.69-2.1,1.76-2.1,3.46c0.03,6.57,0.03,13.14,0.03,19.71v7.59c0,0.37,0.02,0.74,0.05,1.15   l0.04,0.62l0.1,1.92l1.76-0.77c3.36-1.46,6.37-2.18,9.21-2.18c2.48,0,4.85,0.53,7.24,1.63l1.89,0.87V42.06   c0-3.55-0.51-4.28-3.87-5.57C91.17,35.84,89.4,35.5,87.6,35.5z" fill="#00ce7d"></path>
	<path d="M84.86,97.59c-3.91,0-7.82,0-11.73-0.01c-1.46,0-1.51-0.61-1.54-0.97c-0.05-0.64,0.32-1.11,0.97-1.21   c0.2-0.03,0.4-0.04,0.61-0.04l0.8,0.01l48.45-0.01c0.13,0,0.26,0,0.39,0.01c0.88,0.04,1.41,0.46,1.4,1.12   c-0.01,0.96-0.97,1.07-1.38,1.07c-3.07,0.01-6.13,0.01-9.2,0.01l0,0L84.86,97.59z" fill="#00ce7d"></path>
	<path d="M121.89,110.15c-8.52,0.01-17.02,0.01-25.53,0.01l-22.93,0c-0.32,0-0.7-0.01-0.99-0.08c-0.66-0.16-0.88-0.45-0.84-1.11   c0.04-0.66,0.29-0.91,0.96-0.98c0.27-0.03,0.55-0.03,0.83-0.03l49.01,0c0.3,0,0.62,0.01,0.9,0.05c0.21,0.03,0.89,0.17,0.83,0.7   c-0.04,0.31-0.4,0.91-1,1.44c-0.06,0.01-0.19,0.02-0.41,0.02L121.89,110.15z" fill="#00ce7d"></path>
	<path d="M97.84,143.03c-3.01-0.03-5.48-2.51-5.5-5.53c-0.02-3.01,2.42-5.51,5.45-5.57l0.11,0c2.98,0,5.52,2.52,5.54,5.51   c0.01,1.45-0.57,2.84-1.64,3.92c-1.05,1.06-2.48,1.67-3.91,1.67H97.84z M97.86,134.19c-1.81,0-3.07,1.17-3.27,3.04l-0.01,0.12   c0.05,1.92,1.17,3.18,3.01,3.41c0.12,0.02,0.24,0.02,0.36,0.02c0.86,0,1.72-0.39,2.36-1.06c0.61-0.65,0.94-1.5,0.89-2.34   c-0.12-1.91-1.39-3.17-3.24-3.2L97.86,134.19z" fill="#00ce7d"></path>
	<path d="M102.29,13.63c-1.64,0-3.29-0.02-4.93-0.05c-0.23,0-0.56-0.06-0.79-0.31c-0.19-0.2-0.29-0.5-0.27-0.84   c0.03-0.66,0.4-0.99,1.14-1.01c0.66-0.02,1.32-0.03,1.97-0.03l2.94,0.01l2.94-0.01c0.6,0,1.2,0,1.79,0.02   c0.76,0.02,1.25,0.42,1.26,1.05c0.01,0.64-0.46,1.1-1.16,1.12C105.56,13.62,103.92,13.63,102.29,13.63z" fill="#00ce7d"></path>
	<path d="M89,13.62c-0.28-0.01-0.55-0.15-0.75-0.37s-0.31-0.52-0.29-0.81c0.04-0.58,0.51-1.02,1.1-1.02c0.32,0,0.6,0.12,0.8,0.34   c0.2,0.21,0.31,0.49,0.3,0.79c-0.02,0.59-0.51,1.08-1.09,1.08L89,13.62z" fill="#00ce7d"></path>
</g>
</svg>