<svg xmlns="http://www.w3.org/2000/svg" xmlns:xlink="http://www.w3.org/1999/xlink" version="1.1" id="Layer_1" x="0px" y="0px" viewBox="0 0 171.36 171.12" enable-background="new 0 0 171.36 171.12" xml:space="preserve">
<g>
	<path d="M57.11,167.24c-2.19-0.61-4.51-1.45-6.26-3.31c-2.06-2.2-3.06-4.97-3.06-8.45c0.01-19.37,0.01-38.75,0.01-58.12l0-36.31   c0-15.19,0-30.39,0.01-45.58c0-5.63,3.03-9.8,8.08-11.17c0.98-0.26,2.16-0.4,3.5-0.4c19.42-0.02,38.84-0.02,58.26-0.02   c12.7,0,25.39,0,38.09,0.01c7.04,0,11.6,4.55,11.6,11.57c0.02,22.68,0.01,45.36,0,68.04c0,0.5-0.02,1.07-0.15,1.47   c-0.18,0.56-0.46,0.77-1.05,0.77c-0.76-0.01-0.93-0.37-1.04-0.71c-0.15-0.51-0.17-1.18-0.17-1.83c-0.01-14.5-0.01-29.01-0.01-43.51   V27.36h-10.67l0,11.88c0,7.42,0,14.77-0.01,22.13c0,0.02-0.01,1.78-0.76,1.78c-0.58-0.04-1.4-0.42-1.97-0.93   c-2.13-1.9-4.15-3.84-6.3-5.9c-0.88-0.84-1.7-1.63-2.53-2.42l-1.42-1.35l-9.88,9.36c-0.31,0.3-0.61,0.59-0.92,0.86   c-0.36,0.32-0.67,0.47-0.95,0.47c-0.14,0-0.3-0.04-0.48-0.12c-0.47-0.21-0.74-0.48-0.76-1.27c-0.01-0.59-0.01-1.19-0.01-1.78   l0-32.73H50.33v113.17h114.62l0-8.08c0-5.12,0-10.24,0.01-15.35c0-0.5,0.02-1.02,0.12-1.42c0.12-0.48,0.54-0.85,0.95-0.85   c0.73,0.05,1.04,0.27,1.19,0.83c0.12,0.44,0.13,1.03,0.13,1.56c0,4.08,0,8.16-0.01,12.25c-0.02,8.48-0.03,17.24,0.06,25.88   c0.06,6.12-3.62,10.84-9.17,11.75c-0.19,0.03-0.36,0.08-0.53,0.16H57.11z M50.22,155.29c0.01,6.24,3.32,9.54,9.58,9.54l80.62,0   c5.23,0,10.46,0,15.69-0.01c5.22-0.01,8.78-3.54,8.84-8.77c0.02-1.33,0.01-2.66,0.01-3.99l0-8.98H50.22V155.29z M141.28,49.69   c0.19,0,0.66,0.15,1.75,1.18c1.1,1.04,8.74,8.3,8.74,8.3V27.31h-20.94v31.83l1.73-1.65c0,0,5.93-5.63,7.02-6.66   C140.63,49.84,141.1,49.69,141.28,49.69z M59.25,6.29c-0.36,0-0.72,0.01-1.09,0.03c-4.09,0.27-7.24,3.04-7.66,6.73   c-0.26,2.29-0.2,4.58-0.14,6.8c0.03,0.99,0.05,1.91,0.05,2.83v2.06h114.54V16.1c0-6.6-3.21-9.81-9.81-9.81L59.25,6.29z" fill="#00ce7d"></path>
	<path d="M13.04,154.18c-4.52,0-8.1-2.71-8.9-6.76c-0.04-0.19-0.1-0.37-0.18-0.55v-97.8l9.95-20.19c1.01-2.06,2.01-4.12,3.01-6.18   c0.55-1.14,1.04-1.14,1.33-1.14c0.33,0.01,0.79,0.01,1.33,1.12l3,6.16c3.22,6.61,6.44,13.21,9.63,19.82   c0.2,0.41,0.32,1.02,0.32,1.62c0.03,31.61,0.03,63.22,0.02,94.83c0,5.44-3.54,8.98-9.02,9.02l-0.89,0c-0.92,0-1.84-0.01-2.76-0.02   c-0.93-0.01-1.86-0.02-2.8-0.02c-1.39,0-2.53,0.02-3.59,0.06C13.34,154.18,13.19,154.18,13.04,154.18z M6.41,137.95   c0,0.82-0.01,1.64-0.02,2.45c-0.02,1.87-0.05,3.79,0.06,5.7c0.18,3.29,2.61,5.54,6.05,5.61c1.87,0.04,3.74,0.05,5.6,0.05   c1.97,0,3.93-0.02,5.9-0.05c3.27-0.05,5.62-1.96,5.85-4.75c0.18-2.17,0.14-4.33,0.1-6.42c-0.02-0.92-0.03-1.75-0.03-2.58v-2.06   H6.41V137.95z M18.5,75.81c0.59,0,0.93,0.29,1.06,0.9c0.1,0.48,0.15,1.05,0.15,1.84c0.01,14.16,0.01,28.32,0.01,42.48v12.27h10.3   V50.92H6.49v82.35H17.3l0-54.92c0-0.53,0-1.02,0.04-1.46c0.07-0.66,0.44-1.05,1.04-1.08L18.5,75.81z M7.14,48.3h22.25L18.24,25.52   L7.14,48.3z" fill="#00ce7d"></path>
	<path d="M67.67,123.41c-2.17-0.01-2.17-0.91-2.17-1.21c0-0.3,0-1.21,2.17-1.21l28.13,0c18.76,0,37.52,0,56.28,0.01   c0.24,0,0.95,0,1.42,0.16c0.52,0.18,0.72,0.46,0.72,1.04c0,0.58-0.19,0.86-0.69,1.02c-0.5,0.16-1.18,0.17-1.79,0.18   c-9.14,0.01-18.29,0.01-27.43,0.01L67.67,123.41z" fill="#00ce7d"></path>
	<path d="M67.67,105.09c-0.93,0-1.7-0.23-2.01-0.61c-0.1-0.12-0.21-0.31-0.14-0.72c0.06-0.37,0.19-1.07,1.82-1.07   c2.05-0.01,4.11-0.01,6.16-0.01l78.56,0c2.17,0.01,2.18,0.91,2.18,1.21c0,0.3-0.07,0.53-0.23,0.68c-0.32,0.33-1.05,0.52-1.94,0.52   l-42.2,0L67.67,105.09z" fill="#00ce7d"></path>
	<path d="M82.17,86.77c-2.27-0.01-2.27-0.85-2.27-1.21c0-0.3,0-1.21,2.17-1.21l70.23,0c0.25,0,0.53,0,0.8,0.04   c0.67,0.1,1.15,0.59,1.15,1.17c0,0.58-0.49,1.07-1.16,1.17c-0.24,0.04-0.5,0.04-0.74,0.04L82.17,86.77z" fill="#00ce7d"></path>
	<path d="M93.34,50.13c-8.45,0-16.9,0-25.35-0.01c-0.47,0-1-0.02-1.4-0.13c-0.54-0.14-0.83-0.53-0.8-1.07   c0.03-0.65,0.23-0.91,0.82-1.08c0.4-0.11,0.94-0.12,1.56-0.12c3.97-0.01,7.95-0.01,11.92-0.01l31.03,0c0.24,0,0.5,0,0.74,0.04   c0.67,0.1,1.16,0.59,1.16,1.17c0,0.58-0.49,1.07-1.17,1.17c-0.2,0.03-0.41,0.03-0.62,0.03C111.21,50.13,93.34,50.13,93.34,50.13z" fill="#00ce7d"></path>
	<path d="M67.83,68.44c-0.4,0-0.82-0.01-1.14-0.09c-0.58-0.14-0.89-0.51-0.91-1.08c-0.01-0.6,0.3-1.01,0.89-1.14   c0.41-0.09,0.98-0.09,1.49-0.1c4.22,0,16.88-0.01,16.88-0.01h26.08c0.24,0,0.5,0,0.74,0.04c0.68,0.1,1.16,0.59,1.17,1.17   c0,0.57-0.49,1.07-1.18,1.17c-0.18,0.03-0.38,0.03-0.58,0.03c-0.02,0-18.75,0-18.75,0C84.28,68.45,76.06,68.45,67.83,68.44z" fill="#00ce7d"></path>
	<path d="M166.11,103.17c-0.28-0.01-0.59-0.15-0.81-0.38c-0.22-0.23-0.33-0.5-0.33-0.77c0.01-0.59,0.58-1.15,1.18-1.15   c0.3,0.01,0.61,0.15,0.85,0.4c0.22,0.23,0.35,0.52,0.34,0.78c-0.01,0.59-0.58,1.13-1.19,1.13H166.11z" fill="#00ce7d"></path>
	<path d="M66.68,86.74c-0.28-0.01-0.58-0.16-0.81-0.4c-0.23-0.24-0.37-0.54-0.36-0.79c0.01-0.57,0.62-1.17,1.18-1.17   c0.28,0.01,0.58,0.15,0.82,0.4c0.23,0.24,0.37,0.54,0.36,0.79c-0.01,0.56-0.61,1.16-1.17,1.17L66.68,86.74z" fill="#00ce7d"></path>
	<path d="M107.58,154.71c-0.57,0-1.16-0.59-1.17-1.17c-0.01-0.27,0.12-0.55,0.33-0.78c0.23-0.24,0.53-0.38,0.83-0.38   c0.61,0,1.19,0.55,1.2,1.14c0,0.26-0.13,0.56-0.37,0.8c-0.23,0.24-0.54,0.38-0.81,0.39L107.58,154.71z" fill="#00ce7d"></path>
	<path d="M96.52,16.76c-0.13,0-0.26,0-0.39-0.01c-0.91-0.05-1.5-0.52-1.51-1.19c-0.01-0.66,0.58-1.15,1.45-1.21   c0.18-0.01,0.35-0.01,0.52-0.01l0.81,0.01h21.1c2.03,0.02,2.04,0.91,2.04,1.2c0,0.31-0.07,0.53-0.24,0.7   c-0.31,0.32-0.96,0.5-1.74,0.51c-1.5,0.01-3,0.01-4.5,0.01H96.52z" fill="#00ce7d"></path>
	<path d="M18.47,65.12c-0.59,0-1.13-0.57-1.14-1.2c-0.01-0.69,0.44-1.19,1.1-1.2c0.35,0,0.65,0.12,0.89,0.36   c0.22,0.22,0.34,0.52,0.34,0.82C19.66,64.5,19.06,65.11,18.47,65.12L18.47,65.12z" fill="#00ce7d"></path>
</g>
</svg>