<svg xmlns="http://www.w3.org/2000/svg" width="16" height="16" viewBox="0 0 16 16">
  <path id="rating" d="M10,2a8,8,0,1,0,8,8A8.01,8.01,0,0,0,10,2Zm4.979,7.432-1.6,1.56a.453.453,0,0,0-.131.4l.379,2.205a.986.986,0,0,1-1.432,1.04L10.211,13.6a.453.453,0,0,0-.421,0L7.808,14.64A.986.986,0,0,1,6.376,13.6l.379-2.205a.453.453,0,0,0-.131-.4l-1.6-1.56a.99.99,0,0,1,.547-1.685l2.216-.32a.457.457,0,0,0,.341-.248l.989-2.008a.988.988,0,0,1,1.771,0l.989,2.008a.457.457,0,0,0,.341.248l2.216.32a.99.99,0,0,1,.547,1.685Z" transform="translate(-2 -2)" fill="#fa0"/>
</svg>
